<mxfile host="app.diagrams.net" agent="Mozilla/5.0 (Windows NT 10.0; Win64; x64) AppleWebKit/537.36 (KHTML, like Gecko) Chrome/130.0.0.0 Safari/537.36 Edg/130.0.0.0" version="24.8.6">
  <diagram name="Page-1" id="2Rtmjk_jEQCtm8HozEXS">
    <mxGraphModel dx="1807" dy="408" grid="1" gridSize="10" guides="1" tooltips="1" connect="1" arrows="1" fold="1" page="1" pageScale="1" pageWidth="850" pageHeight="1100" math="0" shadow="0">
      <root>
        <mxCell id="0" />
        <mxCell id="1" parent="0" />
        <mxCell id="ZUbJ1waT32losHLFLKut-2" value="&lt;p style=&quot;margin:0px;margin-top:4px;text-align:center;&quot;&gt;&lt;b&gt;MajorSpecific&lt;/b&gt;&lt;/p&gt;&lt;hr size=&quot;1&quot; style=&quot;border-style:solid;&quot;&gt;&lt;p style=&quot;margin:0px;margin-left:4px;&quot;&gt;&lt;br&gt;&lt;/p&gt;&lt;hr size=&quot;1&quot; style=&quot;border-style:solid;&quot;&gt;&lt;p style=&quot;margin:0px;margin-left:4px;&quot;&gt;&lt;br&gt;&lt;/p&gt;" style="verticalAlign=top;align=left;overflow=fill;html=1;whiteSpace=wrap;" parent="1" vertex="1">
          <mxGeometry x="-320" y="440" width="120" height="60" as="geometry" />
        </mxCell>
        <mxCell id="ZUbJ1waT32losHLFLKut-7" value="&lt;p style=&quot;margin:0px;margin-top:4px;text-align:center;&quot;&gt;&lt;b&gt;Department&lt;/b&gt;&lt;/p&gt;&lt;hr size=&quot;1&quot; style=&quot;border-style:solid;&quot;&gt;&lt;p style=&quot;margin:0px;margin-left:4px;&quot;&gt;- name: String&lt;br&gt;- abbreviation: String&lt;/p&gt;&lt;hr size=&quot;1&quot; style=&quot;border-style:solid;&quot;&gt;&lt;p style=&quot;margin:0px;margin-left:4px;&quot;&gt;&lt;br&gt;&lt;/p&gt;" style="verticalAlign=top;align=left;overflow=fill;html=1;whiteSpace=wrap;" parent="1" vertex="1">
          <mxGeometry x="-280" y="50" width="120" height="70" as="geometry" />
        </mxCell>
        <mxCell id="ZUbJ1waT32losHLFLKut-8" value="&lt;p style=&quot;margin:0px;margin-top:4px;text-align:center;&quot;&gt;&lt;b&gt;Course&lt;/b&gt;&lt;/p&gt;&lt;hr size=&quot;1&quot; style=&quot;border-style:solid;&quot;&gt;&lt;p style=&quot;margin:0px;margin-left:4px;&quot;&gt;- name: String&lt;/p&gt;&lt;p style=&quot;margin:0px;margin-left:4px;&quot;&gt;- description: String&lt;/p&gt;&lt;p style=&quot;margin:0px;margin-left:4px;&quot;&gt;&lt;span style=&quot;background-color: initial;&quot;&gt;- units: Integer&lt;/span&gt;&lt;/p&gt;&lt;hr size=&quot;1&quot; style=&quot;border-style:solid;&quot;&gt;&lt;p style=&quot;margin:0px;margin-left:4px;&quot;&gt;&lt;br&gt;&lt;/p&gt;" style="verticalAlign=top;align=left;overflow=fill;html=1;whiteSpace=wrap;" parent="1" vertex="1">
          <mxGeometry x="-400" y="240" width="120" height="90" as="geometry" />
        </mxCell>
        <mxCell id="ZUbJ1waT32losHLFLKut-9" value="" style="endArrow=none;html=1;edgeStyle=orthogonalEdgeStyle;rounded=0;exitX=0.5;exitY=1;exitDx=0;exitDy=0;entryX=0.867;entryY=-0.015;entryDx=0;entryDy=0;entryPerimeter=0;" parent="1" source="ZUbJ1waT32losHLFLKut-7" target="ZUbJ1waT32losHLFLKut-2" edge="1">
          <mxGeometry relative="1" as="geometry">
            <mxPoint x="-20" y="370" as="sourcePoint" />
            <mxPoint x="-60" y="300" as="targetPoint" />
            <Array as="points">
              <mxPoint x="-220" y="439" />
            </Array>
          </mxGeometry>
        </mxCell>
        <mxCell id="ZUbJ1waT32losHLFLKut-10" value="1..1" style="edgeLabel;resizable=0;html=1;align=left;verticalAlign=bottom;" parent="ZUbJ1waT32losHLFLKut-9" connectable="0" vertex="1">
          <mxGeometry x="-1" relative="1" as="geometry">
            <mxPoint y="20" as="offset" />
          </mxGeometry>
        </mxCell>
        <mxCell id="ZUbJ1waT32losHLFLKut-11" value="1..*" style="edgeLabel;resizable=0;html=1;align=right;verticalAlign=bottom;" parent="ZUbJ1waT32losHLFLKut-9" connectable="0" vertex="1">
          <mxGeometry x="1" relative="1" as="geometry" />
        </mxCell>
        <mxCell id="ZUbJ1waT32losHLFLKut-15" value="provides" style="edgeLabel;html=1;align=center;verticalAlign=middle;resizable=0;points=[];" parent="ZUbJ1waT32losHLFLKut-9" connectable="0" vertex="1">
          <mxGeometry x="-0.24" relative="1" as="geometry">
            <mxPoint as="offset" />
          </mxGeometry>
        </mxCell>
        <mxCell id="ZUbJ1waT32losHLFLKut-17" style="edgeStyle=orthogonalEdgeStyle;rounded=0;orthogonalLoop=1;jettySize=auto;html=1;exitX=0.5;exitY=1;exitDx=0;exitDy=0;" parent="1" source="ZUbJ1waT32losHLFLKut-7" target="ZUbJ1waT32losHLFLKut-7" edge="1">
          <mxGeometry relative="1" as="geometry" />
        </mxCell>
        <mxCell id="kadQ8n_BgQ1N7Wu_FcaL-1" value="&lt;p style=&quot;margin:0px;margin-top:4px;text-align:center;&quot;&gt;&lt;b&gt;GeneralEducation&lt;/b&gt;&lt;/p&gt;&lt;hr size=&quot;1&quot; style=&quot;border-style:solid;&quot;&gt;&lt;p style=&quot;margin:0px;margin-left:4px;&quot;&gt;- department: String&lt;/p&gt;&lt;p style=&quot;margin:0px;margin-left:4px;&quot;&gt;- courseNumber: Integer&lt;/p&gt;&lt;hr size=&quot;1&quot; style=&quot;border-style:solid;&quot;&gt;&lt;p style=&quot;margin:0px;margin-left:4px;&quot;&gt;&lt;br&gt;&lt;/p&gt;" style="verticalAlign=top;align=left;overflow=fill;html=1;whiteSpace=wrap;" parent="1" vertex="1">
          <mxGeometry x="-480" y="440" width="140" height="80" as="geometry" />
        </mxCell>
        <mxCell id="kadQ8n_BgQ1N7Wu_FcaL-2" value="complete, disjoint" style="endArrow=block;endSize=16;endFill=0;html=1;rounded=0;exitX=0.5;exitY=0;exitDx=0;exitDy=0;entryX=0.5;entryY=1;entryDx=0;entryDy=0;" parent="1" source="kadQ8n_BgQ1N7Wu_FcaL-1" target="ZUbJ1waT32losHLFLKut-8" edge="1">
          <mxGeometry x="-0.0435" y="20" width="160" relative="1" as="geometry">
            <mxPoint x="-470" y="400" as="sourcePoint" />
            <mxPoint x="-310" y="400" as="targetPoint" />
            <Array as="points">
              <mxPoint x="-410" y="400" />
              <mxPoint x="-340" y="400" />
            </Array>
            <mxPoint as="offset" />
          </mxGeometry>
        </mxCell>
        <mxCell id="kadQ8n_BgQ1N7Wu_FcaL-3" value="" style="endArrow=block;endSize=16;endFill=0;html=1;rounded=0;exitX=0.5;exitY=0;exitDx=0;exitDy=0;entryX=0.5;entryY=1;entryDx=0;entryDy=0;" parent="1" source="ZUbJ1waT32losHLFLKut-2" edge="1">
          <mxGeometry width="160" relative="1" as="geometry">
            <mxPoint x="-230" y="430" as="sourcePoint" />
            <mxPoint x="-340" y="330" as="targetPoint" />
            <Array as="points">
              <mxPoint x="-260" y="400" />
              <mxPoint x="-340" y="400" />
            </Array>
          </mxGeometry>
        </mxCell>
        <mxCell id="kadQ8n_BgQ1N7Wu_FcaL-4" value="" style="endArrow=block;endSize=16;endFill=0;html=1;rounded=0;exitX=0.5;exitY=0;exitDx=0;exitDy=0;entryX=0.5;entryY=1;entryDx=0;entryDy=0;" parent="1" target="ZUbJ1waT32losHLFLKut-2" edge="1">
          <mxGeometry width="160" relative="1" as="geometry">
            <mxPoint x="-180" y="600" as="sourcePoint" />
            <mxPoint x="-260" y="510" as="targetPoint" />
            <Array as="points">
              <mxPoint x="-180" y="560" />
              <mxPoint x="-260" y="560" />
            </Array>
          </mxGeometry>
        </mxCell>
        <mxCell id="kadQ8n_BgQ1N7Wu_FcaL-8" value="" style="endArrow=block;endSize=16;endFill=0;html=1;rounded=0;exitX=0.5;exitY=0;exitDx=0;exitDy=0;entryX=0.5;entryY=1;entryDx=0;entryDy=0;" parent="1" target="ZUbJ1waT32losHLFLKut-2" edge="1">
          <mxGeometry width="160" relative="1" as="geometry">
            <mxPoint x="-340" y="600" as="sourcePoint" />
            <mxPoint x="-420" y="510" as="targetPoint" />
            <Array as="points">
              <mxPoint x="-340" y="560" />
              <mxPoint x="-260" y="560" />
            </Array>
          </mxGeometry>
        </mxCell>
        <mxCell id="kadQ8n_BgQ1N7Wu_FcaL-9" value="complete,disjoint" style="edgeLabel;html=1;align=center;verticalAlign=middle;resizable=0;points=[];" parent="kadQ8n_BgQ1N7Wu_FcaL-8" connectable="0" vertex="1">
          <mxGeometry x="0.1976" y="-1" relative="1" as="geometry">
            <mxPoint x="-32" y="-21" as="offset" />
          </mxGeometry>
        </mxCell>
        <mxCell id="kadQ8n_BgQ1N7Wu_FcaL-20" value="&lt;p style=&quot;margin: 4px 0px 0px; text-align: center;&quot;&gt;&lt;b&gt;Requirement&lt;/b&gt;&lt;/p&gt;&lt;hr style=&quot;border-style: solid;&quot; size=&quot;1&quot;&gt;&lt;p style=&quot;margin: 0px 0px 0px 4px;&quot;&gt;- name: String&lt;/p&gt;&lt;p style=&quot;margin: 0px 0px 0px 4px;&quot;&gt;- description: String&lt;/p&gt;&lt;p style=&quot;margin: 0px 0px 0px 4px;&quot;&gt;- credits: Integer&lt;/p&gt;&lt;hr style=&quot;border-style: solid;&quot; size=&quot;1&quot;&gt;&lt;p style=&quot;margin: 0px 0px 0px 4px;&quot;&gt;&lt;br&gt;&lt;/p&gt;" style="verticalAlign=top;align=left;overflow=fill;html=1;whiteSpace=wrap;" parent="1" vertex="1">
          <mxGeometry x="-740" y="240" width="120" height="90" as="geometry" />
        </mxCell>
        <mxCell id="kadQ8n_BgQ1N7Wu_FcaL-38" value="&lt;p style=&quot;margin:0px;margin-top:4px;text-align:center;&quot;&gt;&lt;b&gt;LowerDivision&lt;/b&gt;&lt;/p&gt;&lt;hr size=&quot;1&quot; style=&quot;border-style:solid;&quot;&gt;&lt;p style=&quot;margin:0px;margin-left:4px;&quot;&gt;- number: Integer&lt;/p&gt;&lt;hr size=&quot;1&quot; style=&quot;border-style:solid;&quot;&gt;&lt;p style=&quot;margin:0px;margin-left:4px;&quot;&gt;&lt;br&gt;&lt;/p&gt;" style="verticalAlign=top;align=left;overflow=fill;html=1;whiteSpace=wrap;" parent="1" vertex="1">
          <mxGeometry x="-390" y="600" width="100" height="60" as="geometry" />
        </mxCell>
        <mxCell id="kadQ8n_BgQ1N7Wu_FcaL-39" value="&lt;p style=&quot;margin:0px;margin-top:4px;text-align:center;&quot;&gt;&lt;b&gt;UpperDivision&lt;/b&gt;&lt;/p&gt;&lt;hr size=&quot;1&quot; style=&quot;border-style:solid;&quot;&gt;&lt;p style=&quot;margin:0px;margin-left:4px;&quot;&gt;- number: Integer&lt;/p&gt;&lt;hr size=&quot;1&quot; style=&quot;border-style:solid;&quot;&gt;&lt;p style=&quot;margin:0px;margin-left:4px;&quot;&gt;&lt;br&gt;&lt;/p&gt;" style="verticalAlign=top;align=left;overflow=fill;html=1;whiteSpace=wrap;" parent="1" vertex="1">
          <mxGeometry x="-230" y="600" width="100" height="60" as="geometry" />
        </mxCell>
        <mxCell id="kadQ8n_BgQ1N7Wu_FcaL-41" value="" style="endArrow=none;html=1;rounded=0;exitX=1;exitY=0.5;exitDx=0;exitDy=0;entryX=0;entryY=0.5;entryDx=0;entryDy=0;" parent="1" source="kadQ8n_BgQ1N7Wu_FcaL-20" target="ZUbJ1waT32losHLFLKut-8" edge="1">
          <mxGeometry width="50" height="50" relative="1" as="geometry">
            <mxPoint x="-570" y="380" as="sourcePoint" />
            <mxPoint x="-520" y="330" as="targetPoint" />
          </mxGeometry>
        </mxCell>
        <mxCell id="kadQ8n_BgQ1N7Wu_FcaL-43" value="Fulfills" style="edgeLabel;html=1;align=center;verticalAlign=middle;resizable=0;points=[];" parent="kadQ8n_BgQ1N7Wu_FcaL-41" connectable="0" vertex="1">
          <mxGeometry x="-0.0031" relative="1" as="geometry">
            <mxPoint y="-15" as="offset" />
          </mxGeometry>
        </mxCell>
        <mxCell id="kadQ8n_BgQ1N7Wu_FcaL-46" value="1..*" style="edgeLabel;html=1;align=center;verticalAlign=middle;resizable=0;points=[];" parent="kadQ8n_BgQ1N7Wu_FcaL-41" connectable="0" vertex="1">
          <mxGeometry x="-0.9078" y="4" relative="1" as="geometry">
            <mxPoint as="offset" />
          </mxGeometry>
        </mxCell>
        <mxCell id="kadQ8n_BgQ1N7Wu_FcaL-47" value="1..*" style="edgeLabel;html=1;align=center;verticalAlign=middle;resizable=0;points=[];" parent="kadQ8n_BgQ1N7Wu_FcaL-41" connectable="0" vertex="1">
          <mxGeometry x="0.8811" y="1" relative="1" as="geometry">
            <mxPoint as="offset" />
          </mxGeometry>
        </mxCell>
        <mxCell id="kadQ8n_BgQ1N7Wu_FcaL-44" value="" style="endArrow=none;dashed=1;html=1;rounded=0;" parent="1" edge="1">
          <mxGeometry width="50" height="50" relative="1" as="geometry">
            <mxPoint x="-500" y="540" as="sourcePoint" />
            <mxPoint x="-500" y="280" as="targetPoint" />
          </mxGeometry>
        </mxCell>
        <mxCell id="kadQ8n_BgQ1N7Wu_FcaL-48" value="&lt;p style=&quot;margin: 4px 0px 0px; text-align: center;&quot;&gt;&lt;b&gt;CourseRequirement&lt;/b&gt;&lt;/p&gt;&lt;hr style=&quot;border-style: solid;&quot; size=&quot;1&quot;&gt;&lt;p style=&quot;margin: 0px 0px 0px 4px;&quot;&gt;&lt;br&gt;&lt;/p&gt;&lt;hr style=&quot;border-style: solid;&quot; size=&quot;1&quot;&gt;&lt;p style=&quot;margin: 0px 0px 0px 4px;&quot;&gt;&lt;br&gt;&lt;/p&gt;" style="verticalAlign=top;align=left;overflow=fill;html=1;whiteSpace=wrap;" parent="1" vertex="1">
          <mxGeometry x="-560" y="540" width="120" height="60" as="geometry" />
        </mxCell>
        <mxCell id="SrOiLYyv8mW-J74-20uQ-3" value="" style="endArrow=block;endSize=16;endFill=0;html=1;rounded=0;entryX=0.5;entryY=1;entryDx=0;entryDy=0;" parent="1" source="SrOiLYyv8mW-J74-20uQ-5" target="kadQ8n_BgQ1N7Wu_FcaL-39" edge="1">
          <mxGeometry width="160" relative="1" as="geometry">
            <mxPoint x="-180" y="760" as="sourcePoint" />
            <mxPoint x="-180" y="670" as="targetPoint" />
            <Array as="points" />
          </mxGeometry>
        </mxCell>
        <mxCell id="SrOiLYyv8mW-J74-20uQ-6" value="" style="endArrow=block;endSize=16;endFill=0;html=1;rounded=0;entryX=0.5;entryY=1;entryDx=0;entryDy=0;" parent="1" target="SrOiLYyv8mW-J74-20uQ-5" edge="1">
          <mxGeometry width="160" relative="1" as="geometry">
            <mxPoint x="-180" y="760" as="sourcePoint" />
            <mxPoint x="-180" y="670" as="targetPoint" />
            <Array as="points">
              <mxPoint x="-180" y="720" />
            </Array>
          </mxGeometry>
        </mxCell>
        <mxCell id="SrOiLYyv8mW-J74-20uQ-5" value="&lt;p style=&quot;margin:0px;margin-top:4px;text-align:center;&quot;&gt;&lt;b&gt;Elective&lt;/b&gt;&lt;/p&gt;&lt;hr size=&quot;1&quot; style=&quot;border-style:solid;&quot;&gt;&lt;p style=&quot;margin:0px;margin-left:4px;&quot;&gt;&lt;br&gt;&lt;/p&gt;&lt;hr size=&quot;1&quot; style=&quot;border-style:solid;&quot;&gt;&lt;p style=&quot;margin:0px;margin-left:4px;&quot;&gt;&lt;br&gt;&lt;/p&gt;" style="verticalAlign=top;align=left;overflow=fill;html=1;whiteSpace=wrap;" parent="1" vertex="1">
          <mxGeometry x="-230" y="720" width="100" height="60" as="geometry" />
        </mxCell>
        <mxCell id="SrOiLYyv8mW-J74-20uQ-7" value="&lt;p style=&quot;margin:0px;margin-top:4px;text-align:center;&quot;&gt;&lt;b&gt;FocusElective&lt;/b&gt;&lt;/p&gt;&lt;hr size=&quot;1&quot; style=&quot;border-style:solid;&quot;&gt;&lt;p style=&quot;margin:0px;margin-left:4px;&quot;&gt;- name: str&lt;/p&gt;&lt;p style=&quot;margin:0px;margin-left:4px;&quot;&gt;- description: str&lt;/p&gt;&lt;hr size=&quot;1&quot; style=&quot;border-style:solid;&quot;&gt;&lt;p style=&quot;margin:0px;margin-left:4px;&quot;&gt;&lt;br&gt;&lt;/p&gt;" style="verticalAlign=top;align=left;overflow=fill;html=1;whiteSpace=wrap;" parent="1" vertex="1">
          <mxGeometry x="-120" y="440" width="100" height="70" as="geometry" />
        </mxCell>
        <mxCell id="SrOiLYyv8mW-J74-20uQ-8" value="" style="endArrow=none;html=1;edgeStyle=orthogonalEdgeStyle;rounded=0;exitX=0.5;exitY=1;exitDx=0;exitDy=0;entryX=0.75;entryY=0;entryDx=0;entryDy=0;" parent="1" source="SrOiLYyv8mW-J74-20uQ-7" target="SrOiLYyv8mW-J74-20uQ-5" edge="1">
          <mxGeometry relative="1" as="geometry">
            <mxPoint x="-72" y="580" as="sourcePoint" />
            <mxPoint x="-68" y="819" as="targetPoint" />
            <Array as="points">
              <mxPoint x="-70" y="690" />
              <mxPoint x="-155" y="690" />
            </Array>
          </mxGeometry>
        </mxCell>
        <mxCell id="SrOiLYyv8mW-J74-20uQ-9" value="1..1" style="edgeLabel;resizable=0;html=1;align=left;verticalAlign=bottom;" parent="SrOiLYyv8mW-J74-20uQ-8" connectable="0" vertex="1">
          <mxGeometry x="-1" relative="1" as="geometry">
            <mxPoint y="20" as="offset" />
          </mxGeometry>
        </mxCell>
        <mxCell id="SrOiLYyv8mW-J74-20uQ-10" value="1..*" style="edgeLabel;resizable=0;html=1;align=right;verticalAlign=bottom;" parent="SrOiLYyv8mW-J74-20uQ-8" connectable="0" vertex="1">
          <mxGeometry x="1" relative="1" as="geometry" />
        </mxCell>
        <mxCell id="SrOiLYyv8mW-J74-20uQ-11" value="offers" style="edgeLabel;html=1;align=center;verticalAlign=middle;resizable=0;points=[];" parent="SrOiLYyv8mW-J74-20uQ-8" connectable="0" vertex="1">
          <mxGeometry x="-0.24" relative="1" as="geometry">
            <mxPoint as="offset" />
          </mxGeometry>
        </mxCell>
        <mxCell id="SrOiLYyv8mW-J74-20uQ-12" value="" style="endArrow=none;html=1;edgeStyle=orthogonalEdgeStyle;rounded=0;entryX=0.5;entryY=0;entryDx=0;entryDy=0;exitX=0.75;exitY=1;exitDx=0;exitDy=0;" parent="1" source="ZUbJ1waT32losHLFLKut-7" target="SrOiLYyv8mW-J74-20uQ-7" edge="1">
          <mxGeometry relative="1" as="geometry">
            <mxPoint x="-160" y="230" as="sourcePoint" />
            <mxPoint x="-56" y="409" as="targetPoint" />
            <Array as="points">
              <mxPoint x="-190" y="250" />
              <mxPoint x="-70" y="250" />
            </Array>
          </mxGeometry>
        </mxCell>
        <mxCell id="SrOiLYyv8mW-J74-20uQ-13" value="1..1" style="edgeLabel;resizable=0;html=1;align=left;verticalAlign=bottom;" parent="SrOiLYyv8mW-J74-20uQ-12" connectable="0" vertex="1">
          <mxGeometry x="-1" relative="1" as="geometry">
            <mxPoint y="20" as="offset" />
          </mxGeometry>
        </mxCell>
        <mxCell id="SrOiLYyv8mW-J74-20uQ-14" value="1..*" style="edgeLabel;resizable=0;html=1;align=right;verticalAlign=bottom;" parent="SrOiLYyv8mW-J74-20uQ-12" connectable="0" vertex="1">
          <mxGeometry x="1" relative="1" as="geometry" />
        </mxCell>
        <mxCell id="SrOiLYyv8mW-J74-20uQ-15" value="provides" style="edgeLabel;html=1;align=center;verticalAlign=middle;resizable=0;points=[];" parent="SrOiLYyv8mW-J74-20uQ-12" connectable="0" vertex="1">
          <mxGeometry x="-0.24" relative="1" as="geometry">
            <mxPoint as="offset" />
          </mxGeometry>
        </mxCell>
        <mxCell id="SrOiLYyv8mW-J74-20uQ-17" value="complete, disjoint" style="endArrow=block;endSize=16;endFill=0;html=1;rounded=0;entryX=0.5;entryY=1;entryDx=0;entryDy=0;exitX=0.5;exitY=0;exitDx=0;exitDy=0;" parent="1" source="SrOiLYyv8mW-J74-20uQ-19" target="kadQ8n_BgQ1N7Wu_FcaL-20" edge="1">
          <mxGeometry x="-0.0909" y="50" width="160" relative="1" as="geometry">
            <mxPoint x="-790" y="410" as="sourcePoint" />
            <mxPoint x="-620" y="330" as="targetPoint" />
            <Array as="points">
              <mxPoint x="-680" y="420" />
              <mxPoint x="-680" y="400" />
            </Array>
            <mxPoint as="offset" />
          </mxGeometry>
        </mxCell>
        <mxCell id="SrOiLYyv8mW-J74-20uQ-18" value="" style="endArrow=block;endSize=16;endFill=0;html=1;rounded=0;exitX=0.5;exitY=0;exitDx=0;exitDy=0;entryX=0.5;entryY=1;entryDx=0;entryDy=0;" parent="1" source="SrOiLYyv8mW-J74-20uQ-20" target="kadQ8n_BgQ1N7Wu_FcaL-20" edge="1">
          <mxGeometry width="160" relative="1" as="geometry">
            <mxPoint x="-540" y="440" as="sourcePoint" />
            <mxPoint x="-620" y="330" as="targetPoint" />
            <Array as="points">
              <mxPoint x="-560" y="400" />
              <mxPoint x="-680" y="400" />
            </Array>
          </mxGeometry>
        </mxCell>
        <mxCell id="SrOiLYyv8mW-J74-20uQ-19" value="&lt;p style=&quot;margin:0px;margin-top:4px;text-align:center;&quot;&gt;&lt;b&gt;Mandatory&lt;/b&gt;&lt;/p&gt;&lt;hr size=&quot;1&quot; style=&quot;border-style:solid;&quot;&gt;&lt;p style=&quot;margin:0px;margin-left:4px;&quot;&gt;&lt;br&gt;&lt;/p&gt;&lt;hr size=&quot;1&quot; style=&quot;border-style:solid;&quot;&gt;&lt;p style=&quot;margin:0px;margin-left:4px;&quot;&gt;&lt;br&gt;&lt;/p&gt;" style="verticalAlign=top;align=left;overflow=fill;html=1;whiteSpace=wrap;" parent="1" vertex="1">
          <mxGeometry x="-720" y="440" width="80" height="60" as="geometry" />
        </mxCell>
        <mxCell id="SrOiLYyv8mW-J74-20uQ-20" value="&lt;p style=&quot;margin:0px;margin-top:4px;text-align:center;&quot;&gt;&lt;b&gt;Choice&lt;/b&gt;&lt;/p&gt;&lt;hr size=&quot;1&quot; style=&quot;border-style:solid;&quot;&gt;&lt;p style=&quot;margin:0px;margin-left:4px;&quot;&gt;&lt;br&gt;&lt;/p&gt;&lt;hr size=&quot;1&quot; style=&quot;border-style:solid;&quot;&gt;&lt;p style=&quot;margin:0px;margin-left:4px;&quot;&gt;&lt;br&gt;&lt;/p&gt;" style="verticalAlign=top;align=left;overflow=fill;html=1;whiteSpace=wrap;" parent="1" vertex="1">
          <mxGeometry x="-600" y="440" width="80" height="60" as="geometry" />
        </mxCell>
        <mxCell id="SrOiLYyv8mW-J74-20uQ-21" value="&lt;p style=&quot;margin:0px;margin-top:4px;text-align:center;&quot;&gt;&lt;b&gt;Total&lt;/b&gt;&lt;/p&gt;&lt;hr size=&quot;1&quot; style=&quot;border-style:solid;&quot;&gt;&lt;p style=&quot;margin:0px;margin-left:4px;&quot;&gt;&lt;br&gt;&lt;/p&gt;&lt;hr size=&quot;1&quot; style=&quot;border-style:solid;&quot;&gt;&lt;p style=&quot;margin:0px;margin-left:4px;&quot;&gt;&lt;br&gt;&lt;/p&gt;" style="verticalAlign=top;align=left;overflow=fill;html=1;whiteSpace=wrap;" parent="1" vertex="1">
          <mxGeometry x="-840" y="440" width="80" height="60" as="geometry" />
        </mxCell>
        <mxCell id="SrOiLYyv8mW-J74-20uQ-22" value="" style="endArrow=block;endSize=16;endFill=0;html=1;rounded=0;entryX=0.5;entryY=1;entryDx=0;entryDy=0;exitX=0.5;exitY=0;exitDx=0;exitDy=0;" parent="1" source="SrOiLYyv8mW-J74-20uQ-21" target="kadQ8n_BgQ1N7Wu_FcaL-20" edge="1">
          <mxGeometry x="-0.0435" y="20" width="160" relative="1" as="geometry">
            <mxPoint x="-860" y="440" as="sourcePoint" />
            <mxPoint x="-780" y="330" as="targetPoint" />
            <Array as="points">
              <mxPoint x="-800" y="420" />
              <mxPoint x="-800" y="400" />
              <mxPoint x="-680" y="400" />
            </Array>
            <mxPoint as="offset" />
          </mxGeometry>
        </mxCell>
        <mxCell id="BLkah4Zig6IIN8YKkx5i-1" value="" style="endArrow=none;html=1;edgeStyle=orthogonalEdgeStyle;rounded=0;exitX=0.974;exitY=0.717;exitDx=0;exitDy=0;exitPerimeter=0;entryX=0;entryY=0.444;entryDx=0;entryDy=0;entryPerimeter=0;" parent="1" target="kadQ8n_BgQ1N7Wu_FcaL-20" edge="1">
          <mxGeometry relative="1" as="geometry">
            <mxPoint x="-681.04" y="239.51" as="sourcePoint" />
            <mxPoint x="-460" y="300" as="targetPoint" />
            <Array as="points">
              <mxPoint x="-681" y="200" />
              <mxPoint x="-810" y="200" />
              <mxPoint x="-810" y="280" />
            </Array>
          </mxGeometry>
        </mxCell>
        <mxCell id="BLkah4Zig6IIN8YKkx5i-2" value="0..*" style="edgeLabel;resizable=0;html=1;align=left;verticalAlign=bottom;" parent="BLkah4Zig6IIN8YKkx5i-1" connectable="0" vertex="1">
          <mxGeometry x="-1" relative="1" as="geometry">
            <mxPoint x="-29" as="offset" />
          </mxGeometry>
        </mxCell>
        <mxCell id="BLkah4Zig6IIN8YKkx5i-3" value="0..1" style="edgeLabel;resizable=0;html=1;align=right;verticalAlign=bottom;" parent="BLkah4Zig6IIN8YKkx5i-1" connectable="0" vertex="1">
          <mxGeometry x="1" relative="1" as="geometry">
            <mxPoint x="-10" as="offset" />
          </mxGeometry>
        </mxCell>
        <mxCell id="3a0uMfrdQph1TH8M0rLq-4" value="&lt;p style=&quot;margin:0px;margin-top:4px;text-align:center;&quot;&gt;&lt;b&gt;Major&lt;/b&gt;&lt;/p&gt;&lt;hr size=&quot;1&quot; style=&quot;border-style:solid;&quot;&gt;&lt;p style=&quot;margin:0px;margin-left:4px;&quot;&gt;- name: str&lt;/p&gt;&lt;p style=&quot;margin:0px;margin-left:4px;&quot;&gt;- description: str&lt;/p&gt;&lt;hr size=&quot;1&quot; style=&quot;border-style:solid;&quot;&gt;&lt;p style=&quot;margin:0px;margin-left:4px;&quot;&gt;&lt;br&gt;&lt;/p&gt;" style="verticalAlign=top;align=left;overflow=fill;html=1;whiteSpace=wrap;" vertex="1" parent="1">
          <mxGeometry x="-700" y="100" width="100" height="70" as="geometry" />
        </mxCell>
        <mxCell id="3a0uMfrdQph1TH8M0rLq-5" value="" style="endArrow=none;html=1;edgeStyle=orthogonalEdgeStyle;rounded=0;exitX=0;exitY=0.5;exitDx=0;exitDy=0;entryX=0.5;entryY=0;entryDx=0;entryDy=0;" edge="1" parent="1" source="ZUbJ1waT32losHLFLKut-7" target="3a0uMfrdQph1TH8M0rLq-4">
          <mxGeometry relative="1" as="geometry">
            <mxPoint x="-490" y="158" as="sourcePoint" />
            <mxPoint x="-330" y="158" as="targetPoint" />
            <Array as="points">
              <mxPoint x="-280" y="80" />
              <mxPoint x="-650" y="80" />
            </Array>
          </mxGeometry>
        </mxCell>
        <mxCell id="3a0uMfrdQph1TH8M0rLq-6" value="1..1" style="edgeLabel;resizable=0;html=1;align=left;verticalAlign=bottom;" connectable="0" vertex="1" parent="3a0uMfrdQph1TH8M0rLq-5">
          <mxGeometry x="-1" relative="1" as="geometry">
            <mxPoint x="-20" as="offset" />
          </mxGeometry>
        </mxCell>
        <mxCell id="3a0uMfrdQph1TH8M0rLq-7" value="1..*" style="edgeLabel;resizable=0;html=1;align=right;verticalAlign=bottom;" connectable="0" vertex="1" parent="3a0uMfrdQph1TH8M0rLq-5">
          <mxGeometry x="1" relative="1" as="geometry">
            <mxPoint x="30" as="offset" />
          </mxGeometry>
        </mxCell>
        <mxCell id="3a0uMfrdQph1TH8M0rLq-13" value="offers" style="edgeLabel;html=1;align=center;verticalAlign=middle;resizable=0;points=[];" vertex="1" connectable="0" parent="3a0uMfrdQph1TH8M0rLq-5">
          <mxGeometry x="0.2218" relative="1" as="geometry">
            <mxPoint as="offset" />
          </mxGeometry>
        </mxCell>
        <mxCell id="3a0uMfrdQph1TH8M0rLq-8" value="" style="endArrow=none;html=1;edgeStyle=orthogonalEdgeStyle;rounded=0;exitX=0.5;exitY=1;exitDx=0;exitDy=0;entryX=0.75;entryY=0;entryDx=0;entryDy=0;" edge="1" parent="1" source="3a0uMfrdQph1TH8M0rLq-4" target="kadQ8n_BgQ1N7Wu_FcaL-20">
          <mxGeometry relative="1" as="geometry">
            <mxPoint x="-510" y="330" as="sourcePoint" />
            <mxPoint x="-350" y="330" as="targetPoint" />
          </mxGeometry>
        </mxCell>
        <mxCell id="3a0uMfrdQph1TH8M0rLq-9" value="1..1" style="edgeLabel;resizable=0;html=1;align=left;verticalAlign=bottom;" connectable="0" vertex="1" parent="3a0uMfrdQph1TH8M0rLq-8">
          <mxGeometry x="-1" relative="1" as="geometry">
            <mxPoint y="10" as="offset" />
          </mxGeometry>
        </mxCell>
        <mxCell id="3a0uMfrdQph1TH8M0rLq-10" value="1..*" style="edgeLabel;resizable=0;html=1;align=right;verticalAlign=bottom;" connectable="0" vertex="1" parent="3a0uMfrdQph1TH8M0rLq-8">
          <mxGeometry x="1" relative="1" as="geometry" />
        </mxCell>
        <mxCell id="3a0uMfrdQph1TH8M0rLq-11" value="have" style="edgeLabel;html=1;align=center;verticalAlign=middle;resizable=0;points=[];" vertex="1" connectable="0" parent="3a0uMfrdQph1TH8M0rLq-8">
          <mxGeometry x="0.0171" y="-1" relative="1" as="geometry">
            <mxPoint as="offset" />
          </mxGeometry>
        </mxCell>
      </root>
    </mxGraphModel>
  </diagram>
</mxfile>
